<svg width="140" height="140" viewBox="0 0 140 140" fill="none" xmlns="http://www.w3.org/2000/svg">
<rect width="140" height="140" fill="#0288D1"/>
<path d="M12.6245 57.3125V52.8569L22.6953 49.5V36.8047L35.9399 29.8467H41.6162V49.5H56.936V57.3125H41.6162V97.5347C41.6162 98.7961 41.9417 99.8947 42.5928 100.831C43.2438 101.766 44.0983 102.234 45.1562 102.234C45.8073 102.234 46.5194 102.011 47.2925 101.563C48.1063 101.115 48.859 100.607 49.5508 100.037C50.2832 99.4268 50.9139 98.8164 51.4429 98.2061C52.0125 97.5957 52.4194 97.1278 52.6636 96.8022L59.1333 101.929C58.0754 103.557 56.9157 105.083 55.6543 106.507C54.3929 107.89 52.9484 109.091 51.3208 110.108C49.6932 111.125 47.8215 111.919 45.7056 112.488C43.5897 113.099 41.1483 113.404 38.3813 113.404C35.7365 113.404 33.4375 113.017 31.4844 112.244C29.5312 111.512 27.9036 110.474 26.6016 109.131C25.2995 107.789 24.3229 106.181 23.6719 104.31C23.0208 102.438 22.6953 100.363 22.6953 98.084V57.3125H12.6245ZM87.3315 70.9233L111.868 49.5H125.54L98.1958 73.4258L131.399 112H108.999L87.3315 86.9146V112H68.2886V24.5977L81.6553 17.6396H87.3315V70.9233Z" fill="white"/>
</svg>
